<svg width="410" height="107" viewBox="0 0 410 107" fill="none" xmlns="http://www.w3.org/2000/svg">
<path d="M24.494 14.604C25.1353 14.604 26.0973 14.604 27.38 14.604C28.712 14.5547 30.044 14.5053 31.376 14.456C32.708 14.4067 33.892 14.382 34.928 14.382C36.0133 14.3327 36.6793 14.308 36.926 14.308L37.296 15.048L37 23.114H35.15L34.854 22.818C34.7553 21.6833 34.6073 20.7953 34.41 20.154C34.262 19.5127 33.7687 19.044 32.93 18.748C32.1407 18.452 30.932 18.2793 29.304 18.23C27.676 18.1807 25.382 18.156 22.422 18.156H15.318L15.17 21.042C15.1207 21.8313 15.0713 22.4973 15.022 23.04C15.022 23.5827 14.9973 24.2487 14.948 25.038C14.948 25.8273 14.948 26.7893 14.948 27.924C14.948 29.0093 14.948 31.6733 14.948 35.916C16.428 35.8667 17.908 35.842 19.388 35.842C20.868 35.842 22.2 35.8173 23.384 35.768C24.6173 35.7187 25.6533 35.62 26.492 35.472C27.3307 35.2747 27.898 35.0033 28.194 34.658C28.5887 34.2633 28.934 33.8687 29.23 33.474C29.526 33.0793 29.674 32.512 29.674 31.772L30.044 31.402L31.302 31.254L31.598 31.402C31.4993 32.5367 31.4007 33.5233 31.302 34.362C31.2527 35.2007 31.228 36.1627 31.228 37.248C31.228 38.432 31.2527 39.542 31.302 40.578C31.4007 41.5647 31.4993 42.65 31.598 43.834L31.302 43.982L29.97 43.834L29.674 43.612C29.674 42.8227 29.526 42.1073 29.23 41.466C28.934 40.7753 28.5887 40.208 28.194 39.764C27.898 39.468 27.3307 39.246 26.492 39.098C25.6533 38.95 24.642 38.8513 23.458 38.802C22.274 38.7527 20.942 38.728 19.462 38.728C17.982 38.728 16.4773 38.728 14.948 38.728V45.906C14.948 47.682 14.948 49.1373 14.948 50.272C14.948 51.3573 14.948 52.344 14.948 53.232C14.9973 54.0707 15.0467 54.86 15.096 55.6C15.1453 56.2907 15.2193 57.1047 15.318 58.042C15.318 58.9793 15.8113 59.448 16.798 59.448H23.088C26.048 59.448 28.3667 59.3987 30.044 59.3C31.7707 59.152 33.078 58.8807 33.966 58.486C34.854 58.0913 35.4707 57.4993 35.816 56.71C36.2107 55.8713 36.5807 54.786 36.926 53.454L37.222 53.158H39.146L37.814 62.556L37.222 63.296C36.9753 63.296 36.408 63.2713 35.52 63.222C34.632 63.222 33.6207 63.1973 32.486 63.148C31.4007 63.0987 30.2907 63.0493 29.156 63C28.0707 63 27.2073 63 26.566 63H11.618C11.2727 63 10.7053 63.0247 9.916 63.074C9.12667 63.1233 8.31267 63.1727 7.474 63.222C6.63533 63.2713 5.82133 63.3207 5.032 63.37C4.24267 63.4193 3.67533 63.444 3.33 63.444L3.182 63.148L3.404 61.816L3.774 61.52C4.56333 61.52 5.30333 61.4953 5.994 61.446C6.68467 61.3473 7.252 61.1253 7.696 60.78C8.09067 60.4347 8.46067 59.9907 8.806 59.448C9.20067 58.9053 9.44733 57.9433 9.546 56.562C9.546 56.2167 9.546 55.822 9.546 55.378C9.59533 54.8847 9.62 54.2927 9.62 53.602C9.66933 52.9113 9.694 52.0727 9.694 51.086C9.694 50.0993 9.694 48.866 9.694 47.386V32.364C9.694 30.6373 9.694 29.182 9.694 27.998C9.694 26.814 9.694 25.8027 9.694 24.964C9.694 24.1253 9.66933 23.41 9.62 22.818C9.62 22.226 9.59533 21.634 9.546 21.042C9.44733 19.71 9.20067 18.7727 8.806 18.23C8.46067 17.638 8.09067 17.1693 7.696 16.824C7.252 16.4787 6.68467 16.2813 5.994 16.232C5.30333 16.1333 4.56333 16.084 3.774 16.084L3.404 15.788L3.182 14.456L3.33 14.16C3.67533 14.16 4.24267 14.1847 5.032 14.234C5.82133 14.2833 6.66 14.3327 7.548 14.382C8.48533 14.4313 9.37333 14.4807 10.212 14.53C11.1 14.5793 11.8153 14.604 12.358 14.604H24.494ZM75.9454 16.972C75.4027 17.3667 75.1314 17.786 75.1314 18.23C75.1314 18.4767 75.2054 18.7727 75.3534 19.118C75.5014 19.4633 75.6494 19.7593 75.7974 20.006C76.6361 21.5353 77.4007 22.9167 78.0914 24.15C78.8314 25.334 79.5467 26.4933 80.2374 27.628C80.9281 28.7133 81.6434 29.848 82.3834 31.032C83.1234 32.1667 83.9867 33.4247 84.9734 34.806C86.0094 33.474 86.9961 32.1173 87.9334 30.736C88.8707 29.3053 89.7094 27.9733 90.4494 26.74C91.1894 25.4573 91.8061 24.3473 92.2994 23.41C92.7927 22.4233 93.1627 21.6587 93.4094 21.116C93.5081 20.8693 93.6067 20.5733 93.7054 20.228C93.8041 19.8333 93.8534 19.4387 93.8534 19.044C93.8534 18.452 93.6807 17.9833 93.3354 17.638C93.0394 17.2927 92.6447 17.046 92.1514 16.898C91.7074 16.7007 91.1894 16.5527 90.5974 16.454C90.0054 16.3553 89.4381 16.232 88.8954 16.084L88.5254 15.788V14.456L88.8954 14.16C90.3261 14.4067 91.5101 14.5547 92.4474 14.604C93.4341 14.604 94.5194 14.604 95.7034 14.604H99.9954C101.179 14.604 102.24 14.5793 103.177 14.53C104.164 14.4807 105.348 14.3573 106.729 14.16L107.025 14.456V15.788L106.729 16.084C105.644 16.232 104.682 16.454 103.843 16.75C103.054 17.046 102.314 17.4407 101.623 17.934C100.982 18.4273 100.341 19.044 99.6994 19.784C99.0581 20.524 98.3674 21.412 97.6274 22.448C96.0487 24.668 94.7414 26.518 93.7054 27.998C92.7187 29.478 91.8307 30.7607 91.0414 31.846C90.3014 32.9313 89.6107 33.9427 88.9694 34.88C88.3774 35.8173 87.7114 36.8287 86.9714 37.914C88.6981 40.43 90.3014 42.8227 91.7814 45.092C93.3107 47.312 94.6674 49.2853 95.8514 51.012C97.0354 52.7387 97.9974 54.1693 98.7374 55.304C99.4774 56.3893 99.9707 57.0553 100.217 57.302C100.711 57.8447 101.155 58.338 101.549 58.782C101.993 59.1767 102.511 59.5467 103.103 59.892C103.695 60.2373 104.435 60.558 105.323 60.854C106.211 61.1007 107.321 61.3227 108.653 61.52L109.319 62.038V63.074L108.875 63.518C107.691 63.37 106.384 63.222 104.953 63.074C103.523 62.9753 102.24 62.926 101.105 62.926H98.1454C97.0107 62.926 95.6541 62.9753 94.0754 63.074C92.5461 63.222 91.1154 63.37 89.7834 63.518L89.4134 63.074V61.964L89.7834 61.52C90.9181 61.4213 91.9541 61.15 92.8914 60.706C93.8287 60.2127 94.2974 59.5467 94.2974 58.708C94.2974 58.1653 93.9521 57.228 93.2614 55.896C92.5707 54.564 91.7074 53.084 90.6714 51.456C89.6847 49.7787 88.5994 48.0767 87.4154 46.35C86.2807 44.6233 85.2201 43.0693 84.2334 41.688C83.0987 43.168 81.9394 44.6973 80.7554 46.276C79.6207 47.8053 78.5601 49.2853 77.5734 50.716C76.6361 52.0973 75.7974 53.3553 75.0574 54.49C74.3174 55.6247 73.7747 56.5373 73.4294 57.228C73.2321 57.6227 73.1334 58.0667 73.1334 58.56C73.1334 58.9547 73.1827 59.3247 73.2814 59.67C73.4294 59.966 73.6761 60.2373 74.0214 60.484C74.4161 60.6813 74.9834 60.8787 75.7234 61.076C76.4634 61.224 77.4501 61.372 78.6834 61.52L79.1274 61.964V63L78.6834 63.444C77.2527 63.1973 75.8714 63.0493 74.5394 63C73.2074 63 71.9741 63 70.8394 63H67.3614C66.2267 63 65.0674 63.0247 63.8834 63.074C62.7487 63.1233 61.4907 63.2467 60.1094 63.444L59.7394 63V62.038L60.3314 61.52C61.4167 61.372 62.3541 61.1993 63.1434 61.002C63.9327 60.7553 64.6481 60.4347 65.2894 60.04C65.9801 59.6453 66.6461 59.152 67.2874 58.56C67.9287 57.9187 68.6441 57.08 69.4334 56.044C70.7654 54.3173 72.4921 51.974 74.6134 49.014C76.7347 46.054 79.2014 42.576 82.0134 38.58C81.2241 37.4947 80.3361 36.2367 79.3494 34.806C78.3627 33.3753 77.3267 31.8707 76.2414 30.292C75.1561 28.7133 74.0461 27.0853 72.9114 25.408C71.7767 23.6813 70.6667 21.9793 69.5814 20.302C69.1867 19.7593 68.7674 19.2413 68.3234 18.748C67.9287 18.2053 67.5341 17.786 67.1394 17.49C66.5967 17.046 65.9307 16.7253 65.1414 16.528C64.4014 16.3307 63.5381 16.1827 62.5514 16.084L61.9594 15.788V14.456L62.4034 14.16C64.6727 14.456 66.8434 14.604 68.9154 14.604H72.0974C73.2321 14.604 74.5394 14.5793 76.0194 14.53C77.4994 14.4313 78.9301 14.308 80.3114 14.16L80.6814 14.456V15.788L80.3114 16.084C79.3247 16.1333 78.4614 16.232 77.7214 16.38C76.9814 16.4787 76.3894 16.676 75.9454 16.972ZM148.103 63.444C147.758 63.444 147.191 63.4193 146.401 63.37C145.612 63.3207 144.798 63.2713 143.959 63.222C143.121 63.1727 142.307 63.1233 141.517 63.074C140.728 63.0247 140.161 63 139.815 63H138.409C138.064 63 137.497 63.0247 136.707 63.074C135.918 63.1233 135.104 63.1727 134.265 63.222C133.427 63.2713 132.613 63.3207 131.823 63.37C131.034 63.4193 130.467 63.444 130.121 63.444L129.973 63.148L130.195 61.816L130.565 61.52C131.157 61.52 131.848 61.4953 132.637 61.446C133.427 61.3473 134.043 61.15 134.487 60.854C134.882 60.558 135.252 60.0893 135.597 59.448C135.943 58.8067 136.189 57.8447 136.337 56.562C136.337 56.2167 136.337 55.822 136.337 55.378C136.387 54.8847 136.411 54.2927 136.411 53.602C136.461 52.9113 136.485 52.0727 136.485 51.086C136.485 50.0993 136.485 48.866 136.485 47.386V28.146C136.485 27.1593 136.485 26.0493 136.485 24.816C136.485 23.5333 136.436 22.2753 136.337 21.042C136.239 19.7593 135.992 18.822 135.597 18.23C135.252 17.638 134.882 17.1693 134.487 16.824C134.043 16.5773 133.575 16.4047 133.081 16.306C132.637 16.158 131.799 16.084 130.565 16.084L130.195 15.788L129.973 14.456L130.121 14.16C130.467 14.16 130.911 14.1847 131.453 14.234C132.045 14.2833 132.637 14.3327 133.229 14.382C133.871 14.4313 134.512 14.4807 135.153 14.53C135.795 14.5793 136.387 14.604 136.929 14.604H139.593C140.136 14.604 140.753 14.604 141.443 14.604C142.134 14.604 142.825 14.604 143.515 14.604C144.255 14.5547 144.921 14.53 145.513 14.53C146.105 14.53 146.599 14.53 146.993 14.53C150.299 14.53 153.086 14.8507 155.355 15.492C157.674 16.1333 159.549 17.046 160.979 18.23C162.41 19.414 163.446 20.8447 164.087 22.522C164.778 24.15 165.123 25.9507 165.123 27.924C165.123 30.7853 164.531 33.1533 163.347 35.028C162.163 36.8533 160.634 38.3087 158.759 39.394C156.934 40.43 154.862 41.1453 152.543 41.54C150.274 41.9347 148.054 42.132 145.883 42.132H141.739C141.739 43.464 141.739 44.87 141.739 46.35C141.739 47.83 141.739 49.236 141.739 50.568C141.789 51.9 141.813 53.1087 141.813 54.194C141.863 55.2793 141.912 56.0687 141.961 56.562C142.06 57.9927 142.307 59.004 142.701 59.596C143.096 60.1387 143.441 60.5333 143.737 60.78C144.181 61.0267 144.625 61.224 145.069 61.372C145.563 61.4707 146.451 61.52 147.733 61.52L148.029 61.816L148.251 63.148L148.103 63.444ZM148.473 38.876C152.617 38.876 155.577 37.9387 157.353 36.064C159.129 34.1893 160.017 31.5993 160.017 28.294C160.017 24.89 158.981 22.3493 156.909 20.672C154.887 18.9947 152.099 18.156 148.547 18.156H142.109C142.011 19.5867 141.937 20.7953 141.887 21.782C141.887 22.7687 141.863 23.632 141.813 24.372C141.764 25.112 141.739 25.778 141.739 26.37C141.739 26.962 141.739 27.5293 141.739 28.072V36.138C141.739 36.7793 141.764 37.2973 141.813 37.692C141.863 38.0373 141.986 38.3087 142.183 38.506C142.381 38.654 142.652 38.7527 142.997 38.802C143.392 38.8513 143.91 38.876 144.551 38.876H148.473ZM206.477 63.444C206.131 63.444 205.564 63.4193 204.775 63.37C203.985 63.3207 203.171 63.2713 202.333 63.222C201.494 63.1727 200.68 63.1233 199.891 63.074C199.101 63.0247 198.534 63 198.189 63H196.783C196.437 63 195.87 63.0247 195.081 63.074C194.291 63.1233 193.477 63.1727 192.639 63.222C191.8 63.2713 190.986 63.3207 190.197 63.37C189.407 63.4193 188.84 63.444 188.495 63.444L188.347 63.148L188.569 61.816L188.939 61.52C189.531 61.52 190.221 61.4953 191.011 61.446C191.8 61.3473 192.417 61.15 192.861 60.854C193.255 60.558 193.625 60.0893 193.971 59.448C194.316 58.8067 194.563 57.8447 194.711 56.562C194.711 56.2167 194.711 55.822 194.711 55.378C194.76 54.8847 194.785 54.2927 194.785 53.602C194.834 52.9113 194.859 52.0727 194.859 51.086C194.859 50.0993 194.859 48.866 194.859 47.386V28.146C194.859 27.1593 194.834 26.0493 194.785 24.816C194.785 23.5333 194.735 22.2753 194.637 21.042C194.538 19.9073 194.316 19.0193 193.971 18.378C193.625 17.6873 193.255 17.1693 192.861 16.824C192.417 16.5773 191.948 16.4047 191.455 16.306C191.011 16.158 190.172 16.084 188.939 16.084L188.569 15.788L188.347 14.456L188.495 14.16C188.84 14.16 189.284 14.1847 189.827 14.234C190.419 14.2833 191.011 14.3327 191.603 14.382C192.244 14.4313 192.885 14.4807 193.527 14.53C194.168 14.5793 194.76 14.604 195.303 14.604H197.967C198.509 14.604 199.126 14.604 199.817 14.604C200.507 14.604 201.198 14.604 201.889 14.604C202.629 14.5547 203.295 14.53 203.887 14.53C204.479 14.53 204.972 14.53 205.367 14.53C208.672 14.53 211.459 14.8507 213.729 15.492C216.047 16.1333 217.922 17.0213 219.353 18.156C220.783 19.2413 221.819 20.5733 222.461 22.152C223.151 23.6813 223.497 25.334 223.497 27.11C223.497 29.2313 223.102 31.0813 222.313 32.66C221.573 34.1893 220.611 35.5213 219.427 36.656C218.243 37.7413 216.911 38.6293 215.431 39.32C213.951 39.9613 212.495 40.4547 211.065 40.8C212.643 43.02 214.271 45.2153 215.949 47.386C217.626 49.5567 219.353 51.678 221.129 53.75C222.115 54.8847 223.028 55.896 223.867 56.784C224.705 57.672 225.593 58.4367 226.531 59.078C227.517 59.7193 228.603 60.2373 229.787 60.632C230.971 61.0267 232.401 61.3227 234.079 61.52L234.523 61.816L234.671 63.148L234.523 63.444C233.437 63.4933 232.204 63.5427 230.823 63.592C229.441 63.6907 228.356 63.74 227.567 63.74C226.284 63.74 225.174 63.592 224.237 63.296C223.299 63 222.387 62.5313 221.499 61.89C220.611 61.2487 219.698 60.41 218.761 59.374C217.873 58.338 216.837 57.1047 215.653 55.674C215.505 55.526 215.061 54.9587 214.321 53.972C213.63 52.936 212.767 51.7273 211.731 50.346C210.744 48.9153 209.683 47.4107 208.549 45.832C207.463 44.204 206.452 42.6993 205.515 41.318H200.113C200.113 42.65 200.113 44.1053 200.113 45.684C200.113 47.2627 200.113 48.7673 200.113 50.198C200.162 51.6287 200.187 52.936 200.187 54.12C200.236 55.2547 200.285 56.0687 200.335 56.562C200.433 57.9927 200.68 59.004 201.075 59.596C201.469 60.1387 201.815 60.5333 202.111 60.78C202.555 61.0267 202.999 61.224 203.443 61.372C203.936 61.4707 204.824 61.52 206.107 61.52L206.403 61.816L206.625 63.148L206.477 63.444ZM206.847 38.062C210.941 38.062 213.877 37.1247 215.653 35.25C217.478 33.326 218.391 30.7607 218.391 27.554C218.391 24.5447 217.355 22.226 215.283 20.598C213.26 18.97 210.473 18.156 206.921 18.156H200.483C200.384 19.5867 200.31 20.7953 200.261 21.782C200.261 22.7687 200.236 23.632 200.187 24.372C200.137 25.112 200.113 25.778 200.113 26.37C200.113 26.962 200.113 27.5293 200.113 28.072V35.324C200.113 35.9653 200.137 36.4833 200.187 36.878C200.236 37.2233 200.359 37.4947 200.557 37.692C200.754 37.84 201.025 37.9387 201.371 37.988C201.765 38.0373 202.283 38.062 202.925 38.062H206.847ZM274.608 14.604C275.25 14.604 276.212 14.604 277.494 14.604C278.826 14.5547 280.158 14.5053 281.49 14.456C282.822 14.4067 284.006 14.382 285.042 14.382C286.128 14.3327 286.794 14.308 287.04 14.308L287.41 15.048L287.114 23.114H285.264L284.968 22.818C284.87 21.6833 284.722 20.7953 284.524 20.154C284.376 19.5127 283.883 19.044 283.044 18.748C282.255 18.452 281.046 18.2793 279.418 18.23C277.79 18.1807 275.496 18.156 272.536 18.156H265.432L265.284 21.042C265.235 21.8313 265.186 22.4973 265.136 23.04C265.136 23.5827 265.112 24.2487 265.062 25.038C265.062 25.8273 265.062 26.7893 265.062 27.924C265.062 29.0093 265.062 31.6733 265.062 35.916C266.542 35.8667 268.022 35.842 269.502 35.842C270.982 35.842 272.314 35.8173 273.498 35.768C274.732 35.7187 275.768 35.62 276.606 35.472C277.445 35.2747 278.012 35.0033 278.308 34.658C278.703 34.2633 279.048 33.8687 279.344 33.474C279.64 33.0793 279.788 32.512 279.788 31.772L280.158 31.402L281.416 31.254L281.712 31.402C281.614 32.5367 281.515 33.5233 281.416 34.362C281.367 35.2007 281.342 36.1627 281.342 37.248C281.342 38.432 281.367 39.542 281.416 40.578C281.515 41.5647 281.614 42.65 281.712 43.834L281.416 43.982L280.084 43.834L279.788 43.612C279.788 42.8227 279.64 42.1073 279.344 41.466C279.048 40.7753 278.703 40.208 278.308 39.764C278.012 39.468 277.445 39.246 276.606 39.098C275.768 38.95 274.756 38.8513 273.572 38.802C272.388 38.7527 271.056 38.728 269.576 38.728C268.096 38.728 266.592 38.728 265.062 38.728V45.906C265.062 47.682 265.062 49.1373 265.062 50.272C265.062 51.3573 265.062 52.344 265.062 53.232C265.112 54.0707 265.161 54.86 265.21 55.6C265.26 56.2907 265.334 57.1047 265.432 58.042C265.432 58.9793 265.926 59.448 266.912 59.448H273.202C276.162 59.448 278.481 59.3987 280.158 59.3C281.885 59.152 283.192 58.8807 284.08 58.486C284.968 58.0913 285.585 57.4993 285.93 56.71C286.325 55.8713 286.695 54.786 287.04 53.454L287.336 53.158H289.26L287.928 62.556L287.336 63.296C287.09 63.296 286.522 63.2713 285.634 63.222C284.746 63.222 283.735 63.1973 282.6 63.148C281.515 63.0987 280.405 63.0493 279.27 63C278.185 63 277.322 63 276.68 63H261.732C261.387 63 260.82 63.0247 260.03 63.074C259.241 63.1233 258.427 63.1727 257.588 63.222C256.75 63.2713 255.936 63.3207 255.146 63.37C254.357 63.4193 253.79 63.444 253.444 63.444L253.296 63.148L253.518 61.816L253.888 61.52C254.678 61.52 255.418 61.4953 256.108 61.446C256.799 61.3473 257.366 61.1253 257.81 60.78C258.205 60.4347 258.575 59.9907 258.92 59.448C259.315 58.9053 259.562 57.9433 259.66 56.562C259.66 56.2167 259.66 55.822 259.66 55.378C259.71 54.8847 259.734 54.2927 259.734 53.602C259.784 52.9113 259.808 52.0727 259.808 51.086C259.808 50.0993 259.808 48.866 259.808 47.386V32.364C259.808 30.6373 259.808 29.182 259.808 27.998C259.808 26.814 259.808 25.8027 259.808 24.964C259.808 24.1253 259.784 23.41 259.734 22.818C259.734 22.226 259.71 21.634 259.66 21.042C259.562 19.71 259.315 18.7727 258.92 18.23C258.575 17.638 258.205 17.1693 257.81 16.824C257.366 16.4787 256.799 16.2813 256.108 16.232C255.418 16.1333 254.678 16.084 253.888 16.084L253.518 15.788L253.296 14.456L253.444 14.16C253.79 14.16 254.357 14.1847 255.146 14.234C255.936 14.2833 256.774 14.3327 257.662 14.382C258.6 14.4313 259.488 14.4807 260.326 14.53C261.214 14.5793 261.93 14.604 262.472 14.604H274.608ZM320.362 25.408C320.362 26.7893 320.608 27.9487 321.102 28.886C321.595 29.774 322.335 30.5633 323.322 31.254C324.358 31.9447 325.64 32.586 327.17 33.178C328.748 33.7207 330.598 34.3127 332.72 34.954C334.545 35.546 336.346 36.212 338.122 36.952C339.898 37.692 341.476 38.654 342.858 39.838C344.288 40.9727 345.423 42.3787 346.262 44.056C347.1 45.684 347.52 47.682 347.52 50.05C347.52 52.566 347.026 54.712 346.04 56.488C345.053 58.2147 343.746 59.6207 342.118 60.706C340.49 61.7913 338.59 62.5807 336.42 63.074C334.298 63.5673 332.054 63.814 329.686 63.814C326.627 63.814 323.84 63.4687 321.324 62.778C318.808 62.0873 316.538 61.224 314.516 60.188L314.22 59.226L315.478 51.308H317.328L317.698 51.752C317.944 54.7613 319.153 56.9813 321.324 58.412C323.494 59.7933 326.454 60.484 330.204 60.484C334.052 60.484 336.938 59.6207 338.862 57.894C340.835 56.118 341.822 53.824 341.822 51.012C341.822 49.2853 341.452 47.8547 340.712 46.72C339.972 45.536 338.985 44.5493 337.752 43.76C336.568 42.9213 335.186 42.2307 333.608 41.688C332.078 41.1453 330.524 40.6027 328.946 40.06C326.972 39.4187 325.122 38.728 323.396 37.988C321.718 37.1987 320.238 36.286 318.956 35.25C317.722 34.214 316.736 32.9807 315.996 31.55C315.305 30.1193 314.96 28.4173 314.96 26.444C314.96 24.1253 315.354 22.1767 316.144 20.598C316.982 18.97 318.117 17.6627 319.548 16.676C320.978 15.64 322.631 14.9 324.506 14.456C326.43 14.012 328.502 13.79 330.722 13.79C333.386 13.79 335.902 14.0367 338.27 14.53C340.638 15.0233 342.562 15.6153 344.042 16.306L344.338 17.12L343.302 23.706H341.23L340.86 23.336C340.761 22.0533 340.342 21.0173 339.602 20.228C338.862 19.4387 337.974 18.822 336.938 18.378C335.951 17.934 334.866 17.638 333.682 17.49C332.547 17.342 331.536 17.268 330.648 17.268C327.441 17.268 324.925 17.9833 323.1 19.414C321.274 20.7953 320.362 22.7933 320.362 25.408ZM378.879 25.408C378.879 26.7893 379.126 27.9487 379.619 28.886C380.113 29.774 380.853 30.5633 381.839 31.254C382.875 31.9447 384.158 32.586 385.687 33.178C387.266 33.7207 389.116 34.3127 391.237 34.954C393.063 35.546 394.863 36.212 396.639 36.952C398.415 37.692 399.994 38.654 401.375 39.838C402.806 40.9727 403.941 42.3787 404.779 44.056C405.618 45.684 406.037 47.682 406.037 50.05C406.037 52.566 405.544 54.712 404.557 56.488C403.571 58.2147 402.263 59.6207 400.635 60.706C399.007 61.7913 397.108 62.5807 394.937 63.074C392.816 63.5673 390.571 63.814 388.203 63.814C385.145 63.814 382.357 63.4687 379.841 62.778C377.325 62.0873 375.056 61.224 373.033 60.188L372.737 59.226L373.995 51.308H375.845L376.215 51.752C376.462 54.7613 377.671 56.9813 379.841 58.412C382.012 59.7933 384.972 60.484 388.721 60.484C392.569 60.484 395.455 59.6207 397.379 57.894C399.353 56.118 400.339 53.824 400.339 51.012C400.339 49.2853 399.969 47.8547 399.229 46.72C398.489 45.536 397.503 44.5493 396.269 43.76C395.085 42.9213 393.704 42.2307 392.125 41.688C390.596 41.1453 389.042 40.6027 387.463 40.06C385.49 39.4187 383.64 38.728 381.913 37.988C380.236 37.1987 378.756 36.286 377.473 35.25C376.24 34.214 375.253 32.9807 374.513 31.55C373.823 30.1193 373.477 28.4173 373.477 26.444C373.477 24.1253 373.872 22.1767 374.661 20.598C375.5 18.97 376.635 17.6627 378.065 16.676C379.496 15.64 381.149 14.9 383.023 14.456C384.947 14.012 387.019 13.79 389.239 13.79C391.903 13.79 394.419 14.0367 396.787 14.53C399.155 15.0233 401.079 15.6153 402.559 16.306L402.855 17.12L401.819 23.706H399.747L399.377 23.336C399.279 22.0533 398.859 21.0173 398.119 20.228C397.379 19.4387 396.491 18.822 395.455 18.378C394.469 17.934 393.383 17.638 392.199 17.49C391.065 17.342 390.053 17.268 389.165 17.268C385.959 17.268 383.443 17.9833 381.617 19.414C379.792 20.7953 378.879 22.7933 378.879 25.408Z" fill="#FF9933"/>
<path d="M151.402 96.5469H144.254L142.648 101H140.328L146.844 83.9375H148.812L155.34 101H153.031L151.402 96.5469ZM144.934 94.6953H150.734L147.828 86.7148L144.934 94.6953ZM170.047 95.5859C169.836 97.3906 169.168 98.7852 168.043 99.7695C166.926 100.746 165.438 101.234 163.578 101.234C161.562 101.234 159.945 100.512 158.727 99.0664C157.516 97.6211 156.91 95.6875 156.91 93.2656V91.625C156.91 90.0391 157.191 88.6445 157.754 87.4414C158.324 86.2383 159.129 85.3164 160.168 84.6758C161.207 84.0273 162.41 83.7031 163.777 83.7031C165.59 83.7031 167.043 84.2109 168.137 85.2266C169.23 86.2344 169.867 87.6328 170.047 89.4219H167.785C167.59 88.0625 167.164 87.0781 166.508 86.4688C165.859 85.8594 164.949 85.5547 163.777 85.5547C162.34 85.5547 161.211 86.0859 160.391 87.1484C159.578 88.2109 159.172 89.7227 159.172 91.6836V93.3359C159.172 95.1875 159.559 96.6602 160.332 97.7539C161.105 98.8477 162.188 99.3945 163.578 99.3945C164.828 99.3945 165.785 99.1133 166.449 98.5508C167.121 97.9805 167.566 96.9922 167.785 95.5859H170.047ZM164.316 101.105L164.176 101.715C165.371 101.926 165.969 102.602 165.969 103.742C165.969 104.5 165.656 105.098 165.031 105.535C164.406 105.98 163.535 106.203 162.418 106.203L162.336 104.949C162.953 104.949 163.43 104.848 163.766 104.645C164.109 104.441 164.281 104.156 164.281 103.789C164.281 103.445 164.156 103.191 163.906 103.027C163.656 102.863 163.148 102.746 162.383 102.676L162.758 101.105H164.316ZM186.254 93.0195C186.254 94.6914 185.973 96.1523 185.41 97.4023C184.848 98.6445 184.051 99.5938 183.02 100.25C181.988 100.906 180.785 101.234 179.41 101.234C178.066 101.234 176.875 100.906 175.836 100.25C174.797 99.5859 173.988 98.6445 173.41 97.4258C172.84 96.1992 172.547 94.7812 172.531 93.1719V91.9414C172.531 90.3008 172.816 88.8516 173.387 87.5938C173.957 86.3359 174.762 85.375 175.801 84.7109C176.848 84.0391 178.043 83.7031 179.387 83.7031C180.754 83.7031 181.957 84.0352 182.996 84.6992C184.043 85.3555 184.848 86.3125 185.41 87.5703C185.973 88.8203 186.254 90.2773 186.254 91.9414V93.0195ZM184.016 91.918C184.016 89.8945 183.609 88.3438 182.797 87.2656C181.984 86.1797 180.848 85.6367 179.387 85.6367C177.965 85.6367 176.844 86.1797 176.023 87.2656C175.211 88.3438 174.793 89.8438 174.77 91.7656V93.0195C174.77 94.9805 175.18 96.5234 176 97.6484C176.828 98.7656 177.965 99.3242 179.41 99.3242C180.863 99.3242 181.988 98.7969 182.785 97.7422C183.582 96.6797 183.992 95.1602 184.016 93.1836V91.918ZM201.641 83.9375V95.5391C201.633 97.1484 201.125 98.4648 200.117 99.4883C199.117 100.512 197.758 101.086 196.039 101.211L195.441 101.234C193.574 101.234 192.086 100.73 190.977 99.7227C189.867 98.7148 189.305 97.3281 189.289 95.5625V83.9375H191.516V95.4922C191.516 96.7266 191.855 97.6875 192.535 98.375C193.215 99.0547 194.184 99.3945 195.441 99.3945C196.715 99.3945 197.688 99.0547 198.359 98.375C199.039 97.6953 199.379 96.7383 199.379 95.5039V83.9375H201.641ZM217.789 98.7617C217.211 99.5898 216.402 100.211 215.363 100.625C214.332 101.031 213.129 101.234 211.754 101.234C210.363 101.234 209.129 100.91 208.051 100.262C206.973 99.6055 206.137 98.6758 205.543 97.4727C204.957 96.2695 204.656 94.875 204.641 93.2891V91.8008C204.641 89.2305 205.238 87.2383 206.434 85.8242C207.637 84.4102 209.324 83.7031 211.496 83.7031C213.277 83.7031 214.711 84.1602 215.797 85.0742C216.883 85.9805 217.547 87.2695 217.789 88.9414H215.539C215.117 86.6836 213.773 85.5547 211.508 85.5547C210 85.5547 208.855 86.0859 208.074 87.1484C207.301 88.2031 206.91 89.7344 206.902 91.7422V93.1367C206.902 95.0508 207.34 96.5742 208.215 97.707C209.09 98.832 210.273 99.3945 211.766 99.3945C212.609 99.3945 213.348 99.3008 213.98 99.1133C214.613 98.9258 215.137 98.6094 215.551 98.1641V94.332H211.602V92.5039H217.789V98.7617ZM233.562 83.9375V95.5391C233.555 97.1484 233.047 98.4648 232.039 99.4883C231.039 100.512 229.68 101.086 227.961 101.211L227.363 101.234C225.496 101.234 224.008 100.73 222.898 99.7227C221.789 98.7148 221.227 97.3281 221.211 95.5625V83.9375H223.438V95.4922C223.438 96.7266 223.777 97.6875 224.457 98.375C225.137 99.0547 226.105 99.3945 227.363 99.3945C228.637 99.3945 229.609 99.0547 230.281 98.375C230.961 97.6953 231.301 96.7383 231.301 95.5039V83.9375H233.562ZM246.758 93.1133H239.363V99.1602H247.953V101H237.113V83.9375H247.836V85.7891H239.363V91.2734H246.758V93.1133ZM266.352 93.1133H258.957V99.1602H267.547V101H256.707V83.9375H267.43V85.7891H258.957V91.2734H266.352V93.1133ZM279.207 83.9375L284.785 97.8594L290.363 83.9375H293.281V101H291.031V94.3555L291.242 87.1836L285.641 101H283.918L278.328 87.2188L278.551 94.3555V101H276.301V83.9375H279.207ZM306.898 93.1133H299.504V99.1602H308.094V101H297.254V83.9375H307.977V85.7891H299.504V91.2734H306.898V93.1133ZM317.152 94.0977H313.145V101H310.883V83.9375H316.531C318.453 83.9375 319.93 84.375 320.961 85.25C322 86.125 322.52 87.3984 322.52 89.0703C322.52 90.1328 322.23 91.0586 321.652 91.8477C321.082 92.6367 320.285 93.2266 319.262 93.6172L323.27 100.859V101H320.855L317.152 94.0977ZM313.145 92.2578H316.602C317.719 92.2578 318.605 91.9688 319.262 91.3906C319.926 90.8125 320.258 90.0391 320.258 89.0703C320.258 88.0156 319.941 87.207 319.309 86.6445C318.684 86.082 317.777 85.7969 316.59 85.7891H313.145V92.2578ZM338.234 95.5859C338.023 97.3906 337.355 98.7852 336.23 99.7695C335.113 100.746 333.625 101.234 331.766 101.234C329.75 101.234 328.133 100.512 326.914 99.0664C325.703 97.6211 325.098 95.6875 325.098 93.2656V91.625C325.098 90.0391 325.379 88.6445 325.941 87.4414C326.512 86.2383 327.316 85.3164 328.355 84.6758C329.395 84.0273 330.598 83.7031 331.965 83.7031C333.777 83.7031 335.23 84.2109 336.324 85.2266C337.418 86.2344 338.055 87.6328 338.234 89.4219H335.973C335.777 88.0625 335.352 87.0781 334.695 86.4688C334.047 85.8594 333.137 85.5547 331.965 85.5547C330.527 85.5547 329.398 86.0859 328.578 87.1484C327.766 88.2109 327.359 89.7227 327.359 91.6836V93.3359C327.359 95.1875 327.746 96.6602 328.52 97.7539C329.293 98.8477 330.375 99.3945 331.766 99.3945C333.016 99.3945 333.973 99.1133 334.637 98.5508C335.309 97.9805 335.754 96.9922 335.973 95.5859H338.234ZM350.961 93.1133H343.566V99.1602H352.156V101H341.316V83.9375H352.039V85.7891H343.566V91.2734H350.961V93.1133ZM364.379 96.5469H357.23L355.625 101H353.305L359.82 83.9375H361.789L368.316 101H366.008L364.379 96.5469ZM357.91 94.6953H363.711L360.805 86.7148L357.91 94.6953ZM376.871 94.0977H372.863V101H370.602V83.9375H376.25C378.172 83.9375 379.648 84.375 380.68 85.25C381.719 86.125 382.238 87.3984 382.238 89.0703C382.238 90.1328 381.949 91.0586 381.371 91.8477C380.801 92.6367 380.004 93.2266 378.98 93.6172L382.988 100.859V101H380.574L376.871 94.0977ZM372.863 92.2578H376.32C377.438 92.2578 378.324 91.9688 378.98 91.3906C379.645 90.8125 379.977 90.0391 379.977 89.0703C379.977 88.0156 379.66 87.207 379.027 86.6445C378.402 86.082 377.496 85.7969 376.309 85.7891H372.863V92.2578ZM387.816 101H385.566V83.9375H387.816V101ZM401.574 96.5469H394.426L392.82 101H390.5L397.016 83.9375H398.984L405.512 101H403.203L401.574 96.5469ZM395.105 94.6953H400.906L398 86.7148L395.105 94.6953Z" fill="#FF9933"/>
<line x1="130" y1="96" x2="3" y2="96" stroke="#FF9933" stroke-width="2"/>
</svg>
